<?xml version="1.0" encoding="UTF-8" ?>
<svg width="200pt" height="200pt" viewBox="0 0 200 200" version="1.1" xmlns="http://www.w3.org/2000/svg">
<g id="#fafdfcff">
<path fill="#fafdfc" opacity="1.00" d=" M 159.30 137.27 C 165.09 135.72 171.53 140.13 174.00 144.84 C 166.86 145.85 158.32 148.30 152.10 143.67 C 154.04 141.15 156.31 138.57 159.30 137.27 Z" />
<path fill="#fafdfc" opacity="1.00" d=" M 81.30 142.31 L 86.00 141.99 C 89.00 147.77 83.36 149.99 79.20 149.92 C 77.36 147.34 77.87 143.11 81.30 142.31 Z" />
<path fill="#fafdfc" opacity="1.00" d=" M 28.30 150.30 C 32.53 149.95 36.78 149.83 41.01 150.04 C 41.25 152.09 40.71 154.07 39.78 155.88 C 36.07 155.90 28.65 155.93 24.94 155.95 C 25.65 153.81 25.54 150.75 28.30 150.30 Z" />
<path fill="#fafdfc" opacity="1.00" d=" M 158.30 152.30 C 162.86 152.85 169.02 150.19 172.88 153.22 C 176.72 160.90 167.83 159.55 163.99 159.11 C 161.22 158.43 156.80 162.01 155.30 158.69 C 153.00 156.25 155.64 152.95 158.30 152.30 Z" />
</g>
<g id="#f4a034ff">
<path fill="#f4a034" opacity="1.00" d=" M 92.27 15.31 C 93.49 15.05 94.72 14.93 95.97 14.97 C 96.11 30.65 95.90 46.33 96.01 62.01 C 95.80 65.67 100.71 67.43 103.68 65.75 C 105.03 63.36 107.32 61.28 105.96 58.01 C 106.17 43.66 105.81 29.31 106.05 14.97 C 110.79 15.06 115.23 17.04 119.73 18.32 C 123.46 21.31 121.32 26.97 122.02 30.99 C 121.08 44.21 124.23 57.97 119.72 70.74 C 115.94 76.85 109.88 82.82 102.00 82.01 C 90.10 83.85 79.43 72.60 80.04 61.01 C 80.03 47.08 79.80 33.13 80.14 19.22 C 84.15 17.79 88.01 15.91 92.27 15.31 Z" />
</g>
<g id="#2d8574ff">
<path fill="#2d8574" opacity="1.00" d=" M 69.22 26.22 C 69.65 26.14 70.51 25.98 70.94 25.91 C 71.16 39.26 70.83 52.62 71.05 65.97 C 72.63 75.84 78.72 84.93 87.99 89.01 C 105.71 98.36 129.45 84.81 130.93 64.97 C 131.25 51.93 130.72 38.89 131.10 25.86 C 148.35 39.57 153.55 66.71 141.45 85.38 C 130.54 105.58 102.88 114.65 82.14 104.82 C 64.02 97.45 51.88 77.53 54.01 57.99 C 54.22 45.73 61.16 34.95 69.22 26.22 Z" />
<path fill="#2d8574" opacity="1.00" d=" M 31.16 120.11 C 33.79 120.02 38.50 118.75 35.08 125.00 C 34.42 127.79 35.31 130.81 37.21 132.84 C 43.08 133.57 49.31 135.10 55.10 133.21 C 57.55 132.70 60.27 135.14 59.68 137.70 C 57.46 146.97 58.13 156.52 57.95 165.96 C 57.99 168.39 54.12 168.78 53.16 166.77 C 53.46 158.19 52.17 149.72 51.86 141.17 C 50.78 139.97 49.12 139.86 47.67 139.42 C 36.44 138.34 24.92 138.44 14.15 142.16 C 15.12 150.26 16.18 159.05 12.71 166.71 C 11.70 169.24 5.94 168.31 7.19 165.08 C 9.01 158.27 10.11 151.08 8.84 144.07 C 8.37 141.77 6.74 139.63 7.14 137.21 C 8.36 134.91 10.82 137.46 12.71 136.68 C 17.50 134.99 23.89 136.64 27.74 132.74 C 29.94 128.83 27.66 123.53 31.16 120.11 Z" />
<path fill="#2d8574" opacity="1.00" d=" M 109.31 120.32 C 110.89 119.18 111.31 122.04 112.21 122.82 C 116.17 122.76 120.16 122.96 123.94 124.21 C 124.90 127.77 120.16 130.58 117.01 128.99 C 114.71 125.23 109.00 131.55 112.27 132.67 C 116.06 133.29 120.62 132.93 123.95 135.17 C 123.71 138.12 121.30 142.47 117.32 139.53 C 114.95 138.73 110.41 138.26 111.08 141.83 C 114.32 144.92 119.22 143.08 122.94 145.19 C 123.05 150.48 116.89 150.11 113.04 150.09 C 111.00 149.91 110.13 153.10 112.25 153.72 C 117.76 155.12 123.49 155.19 129.07 154.05 C 127.91 158.32 126.30 165.28 119.99 162.99 C 113.74 161.56 107.44 160.39 100.99 161.00 C 95.62 161.33 90.53 163.94 85.16 163.92 C 83.49 161.98 82.36 159.45 84.24 157.23 C 90.29 157.43 95.96 154.89 102.00 154.99 C 104.61 155.15 106.57 152.47 106.03 149.98 C 102.28 149.63 98.90 152.01 95.21 151.88 C 93.27 150.59 93.30 146.38 95.99 145.99 C 99.28 144.07 108.03 146.06 107.03 140.06 C 103.42 140.44 99.81 140.71 96.20 140.88 C 94.54 139.88 94.97 137.80 95.09 136.19 C 97.14 133.78 100.81 135.86 103.35 134.40 C 105.54 133.45 107.67 131.65 107.02 129.00 C 103.35 129.33 99.71 130.18 96.00 130.00 C 92.55 122.85 99.59 125.46 102.93 123.89 C 105.41 123.35 107.60 122.22 109.31 120.32 Z" />
<path fill="#2d8574" opacity="1.00" d=" M 43.23 121.48 C 49.85 121.83 56.50 121.97 63.05 123.12 C 62.20 126.62 60.24 131.08 56.01 130.98 C 50.56 129.88 44.68 128.58 41.14 123.82 C 40.39 122.08 41.86 121.73 43.23 121.48 Z" />
<path fill="#2d8574" opacity="1.00" d=" M 79.35 121.45 C 83.87 120.68 88.57 120.72 92.94 122.21 C 93.49 127.43 86.14 129.93 82.00 129.00 C 79.36 128.50 76.66 133.26 79.19 134.88 C 83.87 135.11 88.45 133.62 93.05 132.95 C 92.16 138.23 90.25 143.32 89.61 148.69 C 87.93 153.62 82.06 154.64 78.16 157.14 C 76.29 159.31 75.93 162.29 74.79 164.85 C 70.86 166.42 73.21 160.46 73.13 158.06 C 73.59 154.76 74.51 148.17 74.97 144.87 C 72.07 145.22 70.72 149.05 67.02 146.98 C 65.16 147.11 64.07 144.23 66.74 143.73 C 70.14 140.74 74.16 136.16 72.73 131.28 C 70.07 129.33 69.30 126.49 70.01 123.13 C 73.31 123.64 76.30 122.32 79.35 121.45 M 81.30 142.31 C 77.87 143.11 77.36 147.34 79.20 149.92 C 83.36 149.99 89.00 147.77 86.00 141.99 L 81.30 142.31 Z" />
<path fill="#2d8574" opacity="1.00" d=" M 151.31 121.40 C 154.38 120.72 160.06 122.78 158.79 126.74 C 155.06 131.84 147.82 132.33 142.04 131.97 C 139.07 131.52 138.15 128.58 137.16 126.17 C 140.67 122.24 146.71 123.29 151.31 121.40 Z" />
<path fill="#2d8574" opacity="1.00" d=" M 22.29 122.38 C 22.73 122.27 23.59 122.04 24.02 121.92 C 23.98 128.81 16.11 133.25 10.09 134.01 C 7.09 131.97 3.00 129.29 4.00 125.08 C 10.23 126.79 16.78 125.61 22.29 122.38 Z" />
<path fill="#2d8574" opacity="1.00" d=" M 167.99 123.03 C 175.15 122.32 182.52 122.51 188.85 126.26 C 190.35 130.00 186.12 131.18 183.69 132.72 C 178.01 133.71 172.04 130.89 168.19 126.78 C 167.97 125.54 167.90 124.29 167.99 123.03 Z" />
<path fill="#2d8574" opacity="1.00" d=" M 162.27 131.26 C 165.41 130.10 167.13 134.49 170.00 134.99 C 179.01 138.37 186.65 146.78 197.02 145.13 C 196.86 150.01 192.26 153.59 187.91 154.97 C 184.20 155.60 181.93 151.78 179.13 150.08 C 175.74 154.41 180.30 161.68 176.77 165.86 C 166.49 166.34 156.09 165.25 145.96 167.02 C 145.28 163.78 148.86 162.45 149.73 159.71 C 150.29 155.50 150.42 150.67 147.83 147.05 C 143.32 147.53 140.70 152.83 136.00 153.02 C 131.70 153.84 131.14 145.56 135.08 145.15 C 141.64 143.84 146.68 139.07 152.85 136.79 C 156.48 135.81 159.08 133.04 162.27 131.26 M 159.30 137.27 C 156.31 138.57 154.04 141.15 152.10 143.67 C 158.32 148.30 166.86 145.85 174.00 144.84 C 171.53 140.13 165.09 135.72 159.30 137.27 M 158.30 152.30 C 155.64 152.95 153.00 156.25 155.30 158.69 C 156.80 162.01 161.22 158.43 163.99 159.11 C 167.83 159.55 176.72 160.90 172.88 153.22 C 169.02 150.19 162.86 152.85 158.30 152.30 Z" />
<path fill="#2d8574" opacity="1.00" d=" M 26.34 144.59 C 33.35 144.31 41.61 142.10 47.93 146.17 C 48.40 148.96 45.48 150.82 45.51 153.67 C 43.71 156.32 47.69 159.87 44.77 161.85 C 35.84 162.34 26.82 161.33 17.96 162.91 C 20.09 157.15 21.19 150.63 17.87 145.14 C 20.69 145.00 23.55 145.05 26.34 144.59 M 28.30 150.30 C 25.54 150.75 25.65 153.81 24.94 155.95 C 28.65 155.93 36.07 155.90 39.78 155.88 C 40.71 154.07 41.25 152.09 41.01 150.04 C 36.78 149.83 32.53 149.95 28.30 150.30 Z" />
</g>
</svg>
